<svg width="375" height="2132" viewBox="0 0 375 2132" fill="none" xmlns="http://www.w3.org/2000/svg">
<g clip-path="url(#clip0_176_7276)">
<rect width="375" height="2132" fill="#FFEDF0"/>
<circle cx="6.08715" cy="91.6379" r="1.63793" fill="white"/>
<circle cx="6.08715" cy="101.466" r="1.63793" fill="white"/>
<circle cx="6.08715" cy="111.293" r="1.63793" fill="white"/>
<circle cx="6.08715" cy="121.121" r="1.63793" fill="white"/>
<circle cx="15.9133" cy="91.6379" r="1.63793" fill="white"/>
<circle cx="15.9133" cy="101.466" r="1.63793" fill="white"/>
<circle cx="15.9133" cy="111.293" r="1.63793" fill="white"/>
<circle cx="15.9133" cy="121.121" r="1.63793" fill="white"/>
<circle cx="25.7414" cy="91.6379" r="1.63793" fill="white"/>
<circle cx="25.7414" cy="101.466" r="1.63793" fill="white"/>
<circle cx="25.7414" cy="111.293" r="1.63793" fill="white"/>
<circle cx="25.7414" cy="121.121" r="1.63793" fill="white"/>
<circle cx="35.5696" cy="91.6379" r="1.63793" fill="white"/>
<circle cx="35.5696" cy="101.466" r="1.63793" fill="white"/>
<circle cx="35.5696" cy="111.293" r="1.63793" fill="white"/>
<circle cx="35.5696" cy="121.121" r="1.63793" fill="white"/>
<circle cx="45.3957" cy="91.6379" r="1.63793" fill="white"/>
<circle cx="45.3957" cy="101.466" r="1.63793" fill="white"/>
<circle cx="45.3957" cy="111.293" r="1.63793" fill="white"/>
<circle cx="45.3957" cy="121.121" r="1.63793" fill="white"/>
<circle cx="55.2239" cy="91.6379" r="1.63793" fill="white"/>
<circle cx="55.2239" cy="101.466" r="1.63793" fill="white"/>
<circle cx="55.2239" cy="111.293" r="1.63793" fill="white"/>
<circle cx="55.2239" cy="121.121" r="1.63793" fill="white"/>
<circle cx="65.052" cy="91.6379" r="1.63793" fill="white"/>
<circle cx="65.052" cy="101.466" r="1.63793" fill="white"/>
<circle cx="65.052" cy="111.293" r="1.63793" fill="white"/>
<circle cx="65.052" cy="121.121" r="1.63793" fill="white"/>
<circle cx="74.8801" cy="91.6379" r="1.63793" fill="white"/>
<circle cx="74.8801" cy="101.466" r="1.63793" fill="white"/>
<circle cx="74.8801" cy="111.293" r="1.63793" fill="white"/>
<circle cx="74.8801" cy="121.121" r="1.63793" fill="white"/>
<circle cx="84.7063" cy="91.6379" r="1.63793" fill="white"/>
<circle cx="84.7063" cy="101.466" r="1.63793" fill="white"/>
<circle cx="84.7063" cy="111.293" r="1.63793" fill="white"/>
<circle cx="84.7063" cy="121.121" r="1.63793" fill="white"/>
<circle cx="94.5344" cy="91.6379" r="1.63793" fill="white"/>
<circle cx="94.5344" cy="101.466" r="1.63793" fill="white"/>
<circle cx="94.5344" cy="111.293" r="1.63793" fill="white"/>
<circle cx="94.5344" cy="121.121" r="1.63793" fill="white"/>
<circle cx="104.363" cy="91.6379" r="1.63793" fill="white"/>
<circle cx="104.363" cy="101.466" r="1.63793" fill="white"/>
<circle cx="104.363" cy="111.293" r="1.63793" fill="white"/>
<circle cx="104.363" cy="121.121" r="1.63793" fill="white"/>
<ellipse cx="2.13458" cy="748.335" rx="1.3299" ry="1.32995" fill="white"/>
<ellipse cx="2.13458" cy="756.314" rx="1.3299" ry="1.32995" fill="white"/>
<ellipse cx="2.13458" cy="764.293" rx="1.3299" ry="1.32995" fill="white"/>
<ellipse cx="2.13458" cy="772.273" rx="1.3299" ry="1.32995" fill="white"/>
<ellipse cx="10.0936" cy="748.332" rx="1.3299" ry="1.32995" fill="white"/>
<ellipse cx="10.0936" cy="756.312" rx="1.3299" ry="1.32995" fill="white"/>
<ellipse cx="10.0936" cy="764.291" rx="1.3299" ry="1.32995" fill="white"/>
<ellipse cx="10.0936" cy="772.271" rx="1.3299" ry="1.32995" fill="white"/>
<ellipse cx="18.0877" cy="748.335" rx="1.3299" ry="1.32995" fill="white"/>
<ellipse cx="18.0877" cy="756.314" rx="1.3299" ry="1.32995" fill="white"/>
<ellipse cx="18.0877" cy="764.293" rx="1.3299" ry="1.32995" fill="white"/>
<ellipse cx="18.0877" cy="772.273" rx="1.3299" ry="1.32995" fill="white"/>
<ellipse cx="26.0526" cy="748.332" rx="1.3299" ry="1.32995" fill="white"/>
<ellipse cx="26.0526" cy="756.312" rx="1.3299" ry="1.32995" fill="white"/>
<ellipse cx="26.0526" cy="764.291" rx="1.3299" ry="1.32995" fill="white"/>
<ellipse cx="26.0526" cy="772.271" rx="1.3299" ry="1.32995" fill="white"/>
<ellipse cx="34.0311" cy="748.332" rx="1.3299" ry="1.32995" fill="white"/>
<ellipse cx="34.0311" cy="756.312" rx="1.3299" ry="1.32995" fill="white"/>
<ellipse cx="34.0311" cy="764.291" rx="1.3299" ry="1.32995" fill="white"/>
<ellipse cx="34.0311" cy="772.271" rx="1.3299" ry="1.32995" fill="white"/>
<ellipse cx="42.0272" cy="748.335" rx="1.3299" ry="1.32995" fill="white"/>
<ellipse cx="42.0272" cy="756.314" rx="1.3299" ry="1.32995" fill="white"/>
<ellipse cx="42.0272" cy="764.293" rx="1.3299" ry="1.32995" fill="white"/>
<ellipse cx="42.0272" cy="772.273" rx="1.3299" ry="1.32995" fill="white"/>
<ellipse cx="49.9901" cy="748.332" rx="1.3299" ry="1.32995" fill="white"/>
<ellipse cx="49.9901" cy="756.312" rx="1.3299" ry="1.32995" fill="white"/>
<ellipse cx="49.9901" cy="764.291" rx="1.3299" ry="1.32995" fill="white"/>
<ellipse cx="49.9901" cy="772.271" rx="1.3299" ry="1.32995" fill="white"/>
<ellipse cx="57.9686" cy="748.332" rx="1.3299" ry="1.32995" fill="white"/>
<ellipse cx="57.9686" cy="756.312" rx="1.3299" ry="1.32995" fill="white"/>
<ellipse cx="57.9686" cy="764.291" rx="1.3299" ry="1.32995" fill="white"/>
<ellipse cx="57.9686" cy="772.271" rx="1.3299" ry="1.32995" fill="white"/>
<ellipse cx="65.9666" cy="748.335" rx="1.3299" ry="1.32995" fill="white"/>
<ellipse cx="65.9666" cy="756.314" rx="1.3299" ry="1.32995" fill="white"/>
<ellipse cx="65.9666" cy="764.293" rx="1.3299" ry="1.32995" fill="white"/>
<ellipse cx="65.9666" cy="772.273" rx="1.3299" ry="1.32995" fill="white"/>
<ellipse cx="264.33" cy="1823.33" rx="1.3299" ry="1.32995" fill="white"/>
<ellipse cx="264.34" cy="1831.31" rx="1.3299" ry="1.32995" fill="white"/>
<ellipse cx="264.34" cy="1839.29" rx="1.3299" ry="1.32995" fill="white"/>
<ellipse cx="264.34" cy="1847.27" rx="1.3299" ry="1.32995" fill="white"/>
<ellipse cx="272.32" cy="1823.33" rx="1.3299" ry="1.32995" fill="white"/>
<ellipse cx="272.32" cy="1831.31" rx="1.3299" ry="1.32995" fill="white"/>
<ellipse cx="272.32" cy="1839.29" rx="1.3299" ry="1.32995" fill="white"/>
<ellipse cx="272.32" cy="1847.27" rx="1.3299" ry="1.32995" fill="white"/>
<ellipse cx="280.314" cy="1823.33" rx="1.3299" ry="1.32995" fill="white"/>
<ellipse cx="280.314" cy="1831.31" rx="1.3299" ry="1.32995" fill="white"/>
<ellipse cx="280.314" cy="1839.29" rx="1.3299" ry="1.32995" fill="white"/>
<ellipse cx="280.314" cy="1847.27" rx="1.3299" ry="1.32995" fill="white"/>
<ellipse cx="288.279" cy="1823.33" rx="1.3299" ry="1.32995" fill="white"/>
<ellipse cx="288.279" cy="1831.31" rx="1.3299" ry="1.32995" fill="white"/>
<ellipse cx="288.279" cy="1839.29" rx="1.3299" ry="1.32995" fill="white"/>
<ellipse cx="288.279" cy="1847.27" rx="1.3299" ry="1.32995" fill="white"/>
<ellipse cx="296.258" cy="1823.33" rx="1.3299" ry="1.32995" fill="white"/>
<ellipse cx="296.258" cy="1831.31" rx="1.3299" ry="1.32995" fill="white"/>
<ellipse cx="296.258" cy="1839.29" rx="1.3299" ry="1.32995" fill="white"/>
<ellipse cx="296.258" cy="1847.27" rx="1.3299" ry="1.32995" fill="white"/>
<ellipse cx="304.256" cy="1823.33" rx="1.3299" ry="1.32995" fill="white"/>
<ellipse cx="304.256" cy="1831.31" rx="1.3299" ry="1.32995" fill="white"/>
<ellipse cx="304.256" cy="1839.29" rx="1.3299" ry="1.32995" fill="white"/>
<ellipse cx="304.256" cy="1847.27" rx="1.3299" ry="1.32995" fill="white"/>
<ellipse cx="312.217" cy="1823.33" rx="1.3299" ry="1.32995" fill="white"/>
<ellipse cx="312.217" cy="1831.31" rx="1.3299" ry="1.32995" fill="white"/>
<ellipse cx="312.217" cy="1839.29" rx="1.3299" ry="1.32995" fill="white"/>
<ellipse cx="312.217" cy="1847.27" rx="1.3299" ry="1.32995" fill="white"/>
<ellipse cx="320.207" cy="1823.33" rx="1.3299" ry="1.32995" fill="white"/>
<ellipse cx="320.207" cy="1831.31" rx="1.3299" ry="1.32995" fill="white"/>
<ellipse cx="320.207" cy="1839.29" rx="1.3299" ry="1.32995" fill="white"/>
<ellipse cx="320.207" cy="1847.27" rx="1.3299" ry="1.32995" fill="white"/>
<ellipse cx="328.195" cy="1823.33" rx="1.3299" ry="1.32995" fill="white"/>
<ellipse cx="328.195" cy="1831.31" rx="1.3299" ry="1.32995" fill="white"/>
<ellipse cx="328.195" cy="1839.29" rx="1.3299" ry="1.32995" fill="white"/>
<ellipse cx="328.195" cy="1847.27" rx="1.3299" ry="1.32995" fill="white"/>
<ellipse cx="336.154" cy="1823.33" rx="1.3299" ry="1.32995" fill="white"/>
<ellipse cx="336.154" cy="1831.31" rx="1.3299" ry="1.32995" fill="white"/>
<ellipse cx="336.154" cy="1839.29" rx="1.3299" ry="1.32995" fill="white"/>
<ellipse cx="336.154" cy="1847.27" rx="1.3299" ry="1.32995" fill="white"/>
<ellipse cx="344.146" cy="1823.33" rx="1.3299" ry="1.32995" fill="white"/>
<ellipse cx="344.146" cy="1831.31" rx="1.3299" ry="1.32995" fill="white"/>
<ellipse cx="344.146" cy="1839.29" rx="1.3299" ry="1.32995" fill="white"/>
<ellipse cx="344.146" cy="1847.27" rx="1.3299" ry="1.32995" fill="white"/>
<ellipse cx="352.135" cy="1823.33" rx="1.3299" ry="1.32995" fill="white"/>
<ellipse cx="352.135" cy="1831.31" rx="1.3299" ry="1.32995" fill="white"/>
<ellipse cx="352.135" cy="1839.29" rx="1.3299" ry="1.32995" fill="white"/>
<ellipse cx="352.135" cy="1847.27" rx="1.3299" ry="1.32995" fill="white"/>
<ellipse cx="360.094" cy="1823.33" rx="1.3299" ry="1.32995" fill="white"/>
<ellipse cx="360.094" cy="1831.31" rx="1.3299" ry="1.32995" fill="white"/>
<ellipse cx="360.094" cy="1839.29" rx="1.3299" ry="1.32995" fill="white"/>
<ellipse cx="360.094" cy="1847.27" rx="1.3299" ry="1.32995" fill="white"/>
<ellipse cx="368.088" cy="1823.33" rx="1.3299" ry="1.32995" fill="white"/>
<ellipse cx="368.088" cy="1831.31" rx="1.3299" ry="1.32995" fill="white"/>
<ellipse cx="368.088" cy="1839.29" rx="1.3299" ry="1.32995" fill="white"/>
<ellipse cx="368.088" cy="1847.27" rx="1.3299" ry="1.32995" fill="white"/>
<ellipse cx="376.053" cy="1823.33" rx="1.3299" ry="1.32995" fill="white"/>
<ellipse cx="376.053" cy="1831.31" rx="1.3299" ry="1.32995" fill="white"/>
<ellipse cx="376.053" cy="1839.29" rx="1.3299" ry="1.32995" fill="white"/>
<ellipse cx="376.053" cy="1847.27" rx="1.3299" ry="1.32995" fill="white"/>
<ellipse cx="348.599" cy="853.829" rx="1.82923" ry="1.82931" fill="white"/>
<ellipse cx="348.614" cy="864.808" rx="1.82923" ry="1.82931" fill="white"/>
<ellipse cx="348.614" cy="875.784" rx="1.82923" ry="1.82931" fill="white"/>
<ellipse cx="348.614" cy="886.76" rx="1.82923" ry="1.82931" fill="white"/>
<ellipse cx="359.589" cy="853.832" rx="1.82923" ry="1.82931" fill="white"/>
<ellipse cx="359.589" cy="864.808" rx="1.82923" ry="1.82931" fill="white"/>
<ellipse cx="359.589" cy="875.784" rx="1.82923" ry="1.82931" fill="white"/>
<ellipse cx="359.589" cy="886.76" rx="1.82923" ry="1.82931" fill="white"/>
<ellipse cx="370.585" cy="853.836" rx="1.82923" ry="1.82931" fill="white"/>
<ellipse cx="370.585" cy="864.811" rx="1.82923" ry="1.82931" fill="white"/>
<ellipse cx="370.585" cy="875.787" rx="1.82923" ry="1.82931" fill="white"/>
<ellipse cx="370.585" cy="886.762" rx="1.82923" ry="1.82931" fill="white"/>
<ellipse cx="-1.17756" cy="799.147" rx="1.59587" ry="1.59594" fill="white"/>
<ellipse cx="-1.17756" cy="808.722" rx="1.59587" ry="1.59594" fill="white"/>
<ellipse cx="-1.17756" cy="818.298" rx="1.59587" ry="1.59594" fill="white"/>
<ellipse cx="-1.17756" cy="827.873" rx="1.59587" ry="1.59594" fill="white"/>
<ellipse cx="8.37908" cy="799.144" rx="1.59587" ry="1.59594" fill="white"/>
<ellipse cx="8.37908" cy="808.719" rx="1.59587" ry="1.59594" fill="white"/>
<ellipse cx="8.37908" cy="818.295" rx="1.59587" ry="1.59594" fill="white"/>
<ellipse cx="8.37908" cy="827.871" rx="1.59587" ry="1.59594" fill="white"/>
<ellipse cx="17.9552" cy="799.144" rx="1.59587" ry="1.59594" fill="white"/>
<ellipse cx="17.9552" cy="808.719" rx="1.59587" ry="1.59594" fill="white"/>
<ellipse cx="17.9552" cy="818.295" rx="1.59587" ry="1.59594" fill="white"/>
<ellipse cx="17.9552" cy="827.871" rx="1.59587" ry="1.59594" fill="white"/>
<ellipse cx="27.551" cy="799.147" rx="1.59587" ry="1.59594" fill="white"/>
<ellipse cx="27.551" cy="808.722" rx="1.59587" ry="1.59594" fill="white"/>
<ellipse cx="27.551" cy="818.298" rx="1.59587" ry="1.59594" fill="white"/>
<ellipse cx="27.551" cy="827.873" rx="1.59587" ry="1.59594" fill="white"/>
<ellipse cx="37.1056" cy="799.144" rx="1.59587" ry="1.59594" fill="white"/>
<ellipse cx="37.1056" cy="808.719" rx="1.59587" ry="1.59594" fill="white"/>
<ellipse cx="37.1056" cy="818.295" rx="1.59587" ry="1.59594" fill="white"/>
<ellipse cx="37.1056" cy="827.871" rx="1.59587" ry="1.59594" fill="white"/>
<ellipse cx="46.6935" cy="799.147" rx="1.59587" ry="1.59594" fill="white"/>
<ellipse cx="46.6935" cy="808.722" rx="1.59587" ry="1.59594" fill="white"/>
<ellipse cx="46.6935" cy="818.298" rx="1.59587" ry="1.59594" fill="white"/>
<ellipse cx="46.6935" cy="827.873" rx="1.59587" ry="1.59594" fill="white"/>
<ellipse cx="56.2775" cy="799.147" rx="1.59587" ry="1.59594" fill="white"/>
<ellipse cx="56.2775" cy="808.722" rx="1.59587" ry="1.59594" fill="white"/>
<ellipse cx="56.2775" cy="818.298" rx="1.59587" ry="1.59594" fill="white"/>
<ellipse cx="56.2775" cy="827.873" rx="1.59587" ry="1.59594" fill="white"/>
<ellipse cx="65.8302" cy="799.144" rx="1.59587" ry="1.59594" fill="white"/>
<ellipse cx="65.8302" cy="808.719" rx="1.59587" ry="1.59594" fill="white"/>
<ellipse cx="65.8302" cy="818.295" rx="1.59587" ry="1.59594" fill="white"/>
<ellipse cx="65.8302" cy="827.871" rx="1.59587" ry="1.59594" fill="white"/>
<ellipse cx="75.422" cy="799.147" rx="1.59587" ry="1.59594" fill="white"/>
<ellipse cx="75.422" cy="808.722" rx="1.59587" ry="1.59594" fill="white"/>
<ellipse cx="75.422" cy="818.298" rx="1.59587" ry="1.59594" fill="white"/>
<ellipse cx="75.422" cy="827.873" rx="1.59587" ry="1.59594" fill="white"/>
<ellipse cx="85.006" cy="799.147" rx="1.59587" ry="1.59594" fill="white"/>
<ellipse cx="85.006" cy="808.722" rx="1.59587" ry="1.59594" fill="white"/>
<ellipse cx="85.006" cy="818.298" rx="1.59587" ry="1.59594" fill="white"/>
<ellipse cx="85.006" cy="827.873" rx="1.59587" ry="1.59594" fill="white"/>
<ellipse cx="94.5568" cy="799.144" rx="1.59587" ry="1.59594" fill="white"/>
<ellipse cx="94.5568" cy="808.719" rx="1.59587" ry="1.59594" fill="white"/>
<ellipse cx="94.5568" cy="818.295" rx="1.59587" ry="1.59594" fill="white"/>
<ellipse cx="94.5568" cy="827.871" rx="1.59587" ry="1.59594" fill="white"/>
<ellipse cx="104.151" cy="799.147" rx="1.59587" ry="1.59594" fill="white"/>
<ellipse cx="104.151" cy="808.722" rx="1.59587" ry="1.59594" fill="white"/>
<ellipse cx="104.151" cy="818.298" rx="1.59587" ry="1.59594" fill="white"/>
<ellipse cx="104.151" cy="827.873" rx="1.59587" ry="1.59594" fill="white"/>
<ellipse cx="113.707" cy="799.144" rx="1.59587" ry="1.59594" fill="white"/>
<ellipse cx="113.707" cy="808.719" rx="1.59587" ry="1.59594" fill="white"/>
<ellipse cx="113.707" cy="818.295" rx="1.59587" ry="1.59594" fill="white"/>
<ellipse cx="113.707" cy="827.871" rx="1.59587" ry="1.59594" fill="white"/>
<ellipse cx="123.281" cy="799.144" rx="1.59587" ry="1.59594" fill="white"/>
<ellipse cx="123.281" cy="808.719" rx="1.59587" ry="1.59594" fill="white"/>
<ellipse cx="123.281" cy="818.295" rx="1.59587" ry="1.59594" fill="white"/>
<ellipse cx="123.281" cy="827.871" rx="1.59587" ry="1.59594" fill="white"/>
<ellipse cx="132.877" cy="799.147" rx="1.59587" ry="1.59594" fill="white"/>
<ellipse cx="132.877" cy="808.722" rx="1.59587" ry="1.59594" fill="white"/>
<ellipse cx="132.877" cy="818.298" rx="1.59587" ry="1.59594" fill="white"/>
<ellipse cx="132.877" cy="827.873" rx="1.59587" ry="1.59594" fill="white"/>
<ellipse cx="142.434" cy="799.144" rx="1.59587" ry="1.59594" fill="white"/>
<ellipse cx="142.434" cy="808.719" rx="1.59587" ry="1.59594" fill="white"/>
<ellipse cx="142.434" cy="818.295" rx="1.59587" ry="1.59594" fill="white"/>
<ellipse cx="142.434" cy="827.871" rx="1.59587" ry="1.59594" fill="white"/>
<ellipse cx="152.008" cy="799.144" rx="1.59587" ry="1.59594" fill="white"/>
<ellipse cx="152.008" cy="808.719" rx="1.59587" ry="1.59594" fill="white"/>
<ellipse cx="152.008" cy="818.295" rx="1.59587" ry="1.59594" fill="white"/>
<ellipse cx="152.008" cy="827.871" rx="1.59587" ry="1.59594" fill="white"/>
<ellipse cx="161.606" cy="799.147" rx="1.59587" ry="1.59594" fill="white"/>
<ellipse cx="161.606" cy="808.722" rx="1.59587" ry="1.59594" fill="white"/>
<ellipse cx="161.606" cy="818.298" rx="1.59587" ry="1.59594" fill="white"/>
<ellipse cx="161.606" cy="827.873" rx="1.59587" ry="1.59594" fill="white"/>
<ellipse cx="329.641" cy="1874.14" rx="1.59587" ry="1.59594" fill="white"/>
<ellipse cx="329.653" cy="1883.72" rx="1.59587" ry="1.59594" fill="white"/>
<ellipse cx="329.653" cy="1893.3" rx="1.59587" ry="1.59594" fill="white"/>
<ellipse cx="329.653" cy="1902.87" rx="1.59587" ry="1.59594" fill="white"/>
<ellipse cx="339.229" cy="1874.14" rx="1.59587" ry="1.59594" fill="white"/>
<ellipse cx="339.229" cy="1883.72" rx="1.59587" ry="1.59594" fill="white"/>
<ellipse cx="339.229" cy="1893.3" rx="1.59587" ry="1.59594" fill="white"/>
<ellipse cx="339.229" cy="1902.87" rx="1.59587" ry="1.59594" fill="white"/>
<ellipse cx="348.822" cy="1874.15" rx="1.59587" ry="1.59594" fill="white"/>
<ellipse cx="348.822" cy="1883.72" rx="1.59587" ry="1.59594" fill="white"/>
<ellipse cx="348.822" cy="1893.3" rx="1.59587" ry="1.59594" fill="white"/>
<ellipse cx="348.822" cy="1902.87" rx="1.59587" ry="1.59594" fill="white"/>
<ellipse cx="358.379" cy="1874.14" rx="1.59587" ry="1.59594" fill="white"/>
<ellipse cx="358.379" cy="1883.72" rx="1.59587" ry="1.59594" fill="white"/>
<ellipse cx="358.379" cy="1893.3" rx="1.59587" ry="1.59594" fill="white"/>
<ellipse cx="358.379" cy="1902.87" rx="1.59587" ry="1.59594" fill="white"/>
<ellipse cx="367.955" cy="1874.14" rx="1.59587" ry="1.59594" fill="white"/>
<ellipse cx="367.955" cy="1883.72" rx="1.59587" ry="1.59594" fill="white"/>
<ellipse cx="367.955" cy="1893.3" rx="1.59587" ry="1.59594" fill="white"/>
<ellipse cx="367.955" cy="1902.87" rx="1.59587" ry="1.59594" fill="white"/>
<circle cx="195.233" cy="112.233" r="2.23276" fill="white"/>
<circle cx="195.233" cy="125.629" r="2.23276" fill="white"/>
<circle cx="195.233" cy="139.026" r="2.23276" fill="white"/>
<circle cx="195.233" cy="152.422" r="2.23276" fill="white"/>
<circle cx="208.629" cy="112.233" r="2.23276" fill="white"/>
<circle cx="208.629" cy="125.629" r="2.23276" fill="white"/>
<circle cx="208.629" cy="139.026" r="2.23276" fill="white"/>
<circle cx="208.629" cy="152.422" r="2.23276" fill="white"/>
<circle cx="222.026" cy="112.233" r="2.23276" fill="white"/>
<circle cx="222.026" cy="125.629" r="2.23276" fill="white"/>
<circle cx="222.026" cy="139.026" r="2.23276" fill="white"/>
<circle cx="222.026" cy="152.422" r="2.23276" fill="white"/>
<circle cx="235.422" cy="112.233" r="2.23276" fill="white"/>
<circle cx="235.422" cy="125.629" r="2.23276" fill="white"/>
<circle cx="235.422" cy="139.026" r="2.23276" fill="white"/>
<circle cx="235.422" cy="152.422" r="2.23276" fill="white"/>
<circle cx="248.819" cy="112.233" r="2.23276" fill="white"/>
<circle cx="248.819" cy="125.629" r="2.23276" fill="white"/>
<circle cx="248.819" cy="139.026" r="2.23276" fill="white"/>
<circle cx="248.819" cy="152.422" r="2.23276" fill="white"/>
<circle cx="262.215" cy="112.233" r="2.23276" fill="white"/>
<circle cx="262.215" cy="125.629" r="2.23276" fill="white"/>
<circle cx="262.215" cy="139.026" r="2.23276" fill="white"/>
<circle cx="262.215" cy="152.422" r="2.23276" fill="white"/>
<circle cx="275.612" cy="112.233" r="2.23276" fill="white"/>
<circle cx="275.612" cy="125.629" r="2.23276" fill="white"/>
<circle cx="275.612" cy="139.026" r="2.23276" fill="white"/>
<circle cx="275.612" cy="152.422" r="2.23276" fill="white"/>
<circle cx="289.008" cy="112.233" r="2.23276" fill="white"/>
<circle cx="289.008" cy="125.629" r="2.23276" fill="white"/>
<circle cx="289.008" cy="139.026" r="2.23276" fill="white"/>
<circle cx="289.008" cy="152.422" r="2.23276" fill="white"/>
<circle cx="302.405" cy="112.233" r="2.23276" fill="white"/>
<circle cx="302.405" cy="125.629" r="2.23276" fill="white"/>
<circle cx="302.405" cy="139.026" r="2.23276" fill="white"/>
<circle cx="302.405" cy="152.422" r="2.23276" fill="white"/>
<circle cx="315.801" cy="112.233" r="2.23276" fill="white"/>
<circle cx="315.801" cy="125.629" r="2.23276" fill="white"/>
<circle cx="315.801" cy="139.026" r="2.23276" fill="white"/>
<circle cx="315.801" cy="152.422" r="2.23276" fill="white"/>
<circle cx="329.198" cy="112.233" r="2.23276" fill="white"/>
<circle cx="329.198" cy="125.629" r="2.23276" fill="white"/>
<circle cx="329.198" cy="139.026" r="2.23276" fill="white"/>
<circle cx="329.198" cy="152.422" r="2.23276" fill="white"/>
<circle cx="342.594" cy="112.233" r="2.23276" fill="white"/>
<circle cx="342.594" cy="125.629" r="2.23276" fill="white"/>
<circle cx="342.594" cy="139.026" r="2.23276" fill="white"/>
<circle cx="342.594" cy="152.422" r="2.23276" fill="white"/>
<circle cx="355.991" cy="112.233" r="2.23276" fill="white"/>
<circle cx="355.991" cy="125.629" r="2.23276" fill="white"/>
<circle cx="355.991" cy="139.026" r="2.23276" fill="white"/>
<circle cx="355.991" cy="152.422" r="2.23276" fill="white"/>
<circle cx="369.387" cy="112.233" r="2.23276" fill="white"/>
<circle cx="369.387" cy="125.629" r="2.23276" fill="white"/>
<circle cx="369.387" cy="139.026" r="2.23276" fill="white"/>
<circle cx="369.387" cy="152.422" r="2.23276" fill="white"/>
<circle cx="162.744" cy="909.632" r="2.74436" fill="white"/>
<circle cx="162.744" cy="926.098" r="2.74436" fill="white"/>
<circle cx="162.744" cy="942.564" r="2.74436" fill="white"/>
<circle cx="162.744" cy="959.03" r="2.74436" fill="white"/>
<circle cx="179.211" cy="909.632" r="2.74436" fill="white"/>
<circle cx="179.211" cy="926.098" r="2.74436" fill="white"/>
<circle cx="179.211" cy="942.564" r="2.74436" fill="white"/>
<circle cx="179.211" cy="959.03" r="2.74436" fill="white"/>
<circle cx="195.676" cy="909.632" r="2.74436" fill="white"/>
<circle cx="195.676" cy="926.098" r="2.74436" fill="white"/>
<circle cx="195.676" cy="942.564" r="2.74436" fill="white"/>
<circle cx="195.676" cy="959.03" r="2.74436" fill="white"/>
<circle cx="212.143" cy="909.632" r="2.74436" fill="white"/>
<circle cx="212.143" cy="926.098" r="2.74436" fill="white"/>
<circle cx="212.143" cy="942.564" r="2.74436" fill="white"/>
<circle cx="212.143" cy="959.03" r="2.74436" fill="white"/>
<circle cx="228.61" cy="909.632" r="2.74436" fill="white"/>
<circle cx="228.61" cy="926.098" r="2.74436" fill="white"/>
<circle cx="228.61" cy="942.564" r="2.74436" fill="white"/>
<circle cx="228.61" cy="959.03" r="2.74436" fill="white"/>
<circle cx="245.074" cy="909.632" r="2.74436" fill="white"/>
<circle cx="245.074" cy="926.098" r="2.74436" fill="white"/>
<circle cx="245.074" cy="942.564" r="2.74436" fill="white"/>
<circle cx="245.074" cy="959.03" r="2.74436" fill="white"/>
<circle cx="261.541" cy="909.632" r="2.74436" fill="white"/>
<circle cx="261.541" cy="926.098" r="2.74436" fill="white"/>
<circle cx="261.541" cy="942.564" r="2.74436" fill="white"/>
<circle cx="261.541" cy="959.03" r="2.74436" fill="white"/>
<circle cx="278.008" cy="909.632" r="2.74436" fill="white"/>
<circle cx="278.008" cy="926.098" r="2.74436" fill="white"/>
<circle cx="278.008" cy="942.564" r="2.74436" fill="white"/>
<circle cx="278.008" cy="959.03" r="2.74436" fill="white"/>
<circle cx="294.473" cy="909.632" r="2.74436" fill="white"/>
<circle cx="294.473" cy="926.098" r="2.74436" fill="white"/>
<circle cx="294.473" cy="942.564" r="2.74436" fill="white"/>
<circle cx="294.473" cy="959.03" r="2.74436" fill="white"/>
<circle cx="310.94" cy="909.632" r="2.74436" fill="white"/>
<circle cx="310.94" cy="926.098" r="2.74436" fill="white"/>
<circle cx="310.94" cy="942.564" r="2.74436" fill="white"/>
<circle cx="310.94" cy="959.03" r="2.74436" fill="white"/>
<circle cx="327.406" cy="909.632" r="2.74436" fill="white"/>
<circle cx="327.406" cy="926.098" r="2.74436" fill="white"/>
<circle cx="327.406" cy="942.564" r="2.74436" fill="white"/>
<circle cx="327.406" cy="959.03" r="2.74436" fill="white"/>
<circle cx="343.871" cy="909.632" r="2.74436" fill="white"/>
<circle cx="343.871" cy="926.098" r="2.74436" fill="white"/>
<circle cx="343.871" cy="942.564" r="2.74436" fill="white"/>
<circle cx="343.871" cy="959.03" r="2.74436" fill="white"/>
<circle cx="360.338" cy="909.632" r="2.74436" fill="white"/>
<circle cx="360.338" cy="926.098" r="2.74436" fill="white"/>
<circle cx="360.338" cy="942.564" r="2.74436" fill="white"/>
<circle cx="360.338" cy="959.03" r="2.74436" fill="white"/>
<circle cx="376.805" cy="909.632" r="2.74436" fill="white"/>
<circle cx="376.805" cy="926.098" r="2.74436" fill="white"/>
<circle cx="376.805" cy="942.564" r="2.74436" fill="white"/>
<circle cx="376.805" cy="959.03" r="2.74436" fill="white"/>
<ellipse cx="6.51478" cy="1646.83" rx="1.82923" ry="1.82931" fill="white"/>
<ellipse cx="6.51478" cy="1657.81" rx="1.82923" ry="1.82931" fill="white"/>
<ellipse cx="6.51478" cy="1668.78" rx="1.82923" ry="1.82931" fill="white"/>
<ellipse cx="6.51478" cy="1679.76" rx="1.82923" ry="1.82931" fill="white"/>
<ellipse cx="17.5148" cy="1646.84" rx="1.82923" ry="1.82931" fill="white"/>
<ellipse cx="17.5148" cy="1657.81" rx="1.82923" ry="1.82931" fill="white"/>
<ellipse cx="17.5148" cy="1668.79" rx="1.82923" ry="1.82931" fill="white"/>
<ellipse cx="17.5148" cy="1679.76" rx="1.82923" ry="1.82931" fill="white"/>
<ellipse cx="28.466" cy="1646.83" rx="1.82923" ry="1.82931" fill="white"/>
<ellipse cx="28.466" cy="1657.81" rx="1.82923" ry="1.82931" fill="white"/>
<ellipse cx="28.466" cy="1668.78" rx="1.82923" ry="1.82931" fill="white"/>
<ellipse cx="28.466" cy="1679.76" rx="1.82923" ry="1.82931" fill="white"/>
<ellipse cx="39.4562" cy="1646.84" rx="1.82923" ry="1.82931" fill="white"/>
<ellipse cx="39.4562" cy="1657.81" rx="1.82923" ry="1.82931" fill="white"/>
<ellipse cx="39.4562" cy="1668.79" rx="1.82923" ry="1.82931" fill="white"/>
<ellipse cx="39.4562" cy="1679.76" rx="1.82923" ry="1.82931" fill="white"/>
<ellipse cx="50.4425" cy="1646.84" rx="1.82923" ry="1.82931" fill="white"/>
<ellipse cx="50.4425" cy="1657.81" rx="1.82923" ry="1.82931" fill="white"/>
<ellipse cx="50.4425" cy="1668.79" rx="1.82923" ry="1.82931" fill="white"/>
<ellipse cx="50.4425" cy="1679.76" rx="1.82923" ry="1.82931" fill="white"/>
<ellipse cx="61.3917" cy="1646.83" rx="1.82923" ry="1.82931" fill="white"/>
<ellipse cx="61.3917" cy="1657.81" rx="1.82923" ry="1.82931" fill="white"/>
<ellipse cx="61.3917" cy="1668.78" rx="1.82923" ry="1.82931" fill="white"/>
<ellipse cx="61.3917" cy="1679.76" rx="1.82923" ry="1.82931" fill="white"/>
<ellipse cx="72.3859" cy="1646.84" rx="1.82923" ry="1.82931" fill="white"/>
<ellipse cx="72.3859" cy="1657.81" rx="1.82923" ry="1.82931" fill="white"/>
<ellipse cx="72.3859" cy="1668.79" rx="1.82923" ry="1.82931" fill="white"/>
<ellipse cx="72.3859" cy="1679.76" rx="1.82923" ry="1.82931" fill="white"/>
<ellipse cx="83.3702" cy="1646.84" rx="1.82923" ry="1.82931" fill="white"/>
<ellipse cx="83.3702" cy="1657.81" rx="1.82923" ry="1.82931" fill="white"/>
<ellipse cx="83.3702" cy="1668.79" rx="1.82923" ry="1.82931" fill="white"/>
<ellipse cx="83.3702" cy="1679.76" rx="1.82923" ry="1.82931" fill="white"/>
<ellipse cx="94.3195" cy="1646.83" rx="1.82923" ry="1.82931" fill="white"/>
<ellipse cx="94.3195" cy="1657.81" rx="1.82923" ry="1.82931" fill="white"/>
<ellipse cx="94.3195" cy="1668.78" rx="1.82923" ry="1.82931" fill="white"/>
<ellipse cx="94.3195" cy="1679.76" rx="1.82923" ry="1.82931" fill="white"/>
<ellipse cx="105.314" cy="1646.84" rx="1.82923" ry="1.82931" fill="white"/>
<ellipse cx="105.314" cy="1657.81" rx="1.82923" ry="1.82931" fill="white"/>
<ellipse cx="105.314" cy="1668.79" rx="1.82923" ry="1.82931" fill="white"/>
<ellipse cx="105.314" cy="1679.76" rx="1.82923" ry="1.82931" fill="white"/>
<ellipse cx="116.269" cy="1646.83" rx="1.82923" ry="1.82931" fill="white"/>
<ellipse cx="116.269" cy="1657.81" rx="1.82923" ry="1.82931" fill="white"/>
<ellipse cx="116.269" cy="1668.78" rx="1.82923" ry="1.82931" fill="white"/>
<ellipse cx="116.269" cy="1679.76" rx="1.82923" ry="1.82931" fill="white"/>
<ellipse cx="127.243" cy="1646.83" rx="1.82923" ry="1.82931" fill="white"/>
<ellipse cx="127.243" cy="1657.81" rx="1.82923" ry="1.82931" fill="white"/>
<ellipse cx="127.243" cy="1668.78" rx="1.82923" ry="1.82931" fill="white"/>
<ellipse cx="127.243" cy="1679.76" rx="1.82923" ry="1.82931" fill="white"/>
<ellipse cx="138.243" cy="1646.84" rx="1.82923" ry="1.82931" fill="white"/>
<ellipse cx="138.243" cy="1657.81" rx="1.82923" ry="1.82931" fill="white"/>
<ellipse cx="138.243" cy="1668.79" rx="1.82923" ry="1.82931" fill="white"/>
<ellipse cx="138.243" cy="1679.76" rx="1.82923" ry="1.82931" fill="white"/>
<ellipse cx="149.196" cy="1646.83" rx="1.82923" ry="1.82931" fill="white"/>
<ellipse cx="149.196" cy="1657.81" rx="1.82923" ry="1.82931" fill="white"/>
<ellipse cx="149.196" cy="1668.78" rx="1.82923" ry="1.82931" fill="white"/>
<ellipse cx="149.196" cy="1679.76" rx="1.82923" ry="1.82931" fill="white"/>
<ellipse cx="160.171" cy="1646.83" rx="1.82923" ry="1.82931" fill="white"/>
<ellipse cx="160.171" cy="1657.81" rx="1.82923" ry="1.82931" fill="white"/>
<ellipse cx="160.171" cy="1668.78" rx="1.82923" ry="1.82931" fill="white"/>
<ellipse cx="160.171" cy="1679.76" rx="1.82923" ry="1.82931" fill="white"/>
<ellipse cx="171.171" cy="1646.84" rx="1.82923" ry="1.82931" fill="white"/>
<ellipse cx="171.171" cy="1657.81" rx="1.82923" ry="1.82931" fill="white"/>
<ellipse cx="171.171" cy="1668.79" rx="1.82923" ry="1.82931" fill="white"/>
<ellipse cx="171.171" cy="1679.76" rx="1.82923" ry="1.82931" fill="white"/>
<circle cx="7.87132" cy="1702.63" r="2.74436" fill="white"/>
<circle cx="7.87132" cy="1719.1" r="2.74436" fill="white"/>
<circle cx="7.87132" cy="1735.56" r="2.74436" fill="white"/>
<circle cx="7.87132" cy="1752.03" r="2.74436" fill="white"/>
<circle cx="24.3381" cy="1702.63" r="2.74436" fill="white"/>
<circle cx="24.3381" cy="1719.1" r="2.74436" fill="white"/>
<circle cx="24.3381" cy="1735.56" r="2.74436" fill="white"/>
<circle cx="24.3381" cy="1752.03" r="2.74436" fill="white"/>
<circle cx="40.8049" cy="1702.63" r="2.74436" fill="white"/>
<circle cx="40.8049" cy="1719.1" r="2.74436" fill="white"/>
<circle cx="40.8049" cy="1735.56" r="2.74436" fill="white"/>
<circle cx="40.8049" cy="1752.03" r="2.74436" fill="white"/>
<circle cx="57.2698" cy="1702.63" r="2.74436" fill="white"/>
<circle cx="57.2698" cy="1719.1" r="2.74436" fill="white"/>
<circle cx="57.2698" cy="1735.56" r="2.74436" fill="white"/>
<circle cx="57.2698" cy="1752.03" r="2.74436" fill="white"/>
<circle cx="73.7365" cy="1702.63" r="2.74436" fill="white"/>
<circle cx="73.7365" cy="1719.1" r="2.74436" fill="white"/>
<circle cx="73.7365" cy="1735.56" r="2.74436" fill="white"/>
<circle cx="73.7365" cy="1752.03" r="2.74436" fill="white"/>
<circle cx="90.2033" cy="1702.63" r="2.74436" fill="white"/>
<circle cx="90.2033" cy="1719.1" r="2.74436" fill="white"/>
<circle cx="90.2033" cy="1735.56" r="2.74436" fill="white"/>
<circle cx="90.2033" cy="1752.03" r="2.74436" fill="white"/>
<circle cx="106.67" cy="1702.63" r="2.74436" fill="white"/>
<circle cx="106.67" cy="1719.1" r="2.74436" fill="white"/>
<circle cx="106.67" cy="1735.56" r="2.74436" fill="white"/>
<circle cx="106.67" cy="1752.03" r="2.74436" fill="white"/>
<circle cx="123.135" cy="1702.63" r="2.74436" fill="white"/>
<circle cx="123.135" cy="1719.1" r="2.74436" fill="white"/>
<circle cx="123.135" cy="1735.56" r="2.74436" fill="white"/>
<circle cx="123.135" cy="1752.03" r="2.74436" fill="white"/>
<circle cx="139.602" cy="1702.63" r="2.74436" fill="white"/>
<circle cx="139.602" cy="1719.1" r="2.74436" fill="white"/>
<circle cx="139.602" cy="1735.56" r="2.74436" fill="white"/>
<circle cx="139.602" cy="1752.03" r="2.74436" fill="white"/>
</g>
<defs>
<clipPath id="clip0_176_7276">
<rect width="375" height="2132" fill="white"/>
</clipPath>
</defs>
</svg>
