<svg width="48" height="48" viewBox="0 0 48 48" fill="none" xmlns="http://www.w3.org/2000/svg">
<circle cx="24" cy="24" r="23.5" stroke="#55000C"/>
<path d="M10.5288 33.8954C10.5288 34.0954 10.5754 34.2654 10.6688 34.4054C10.7621 34.5387 10.8854 34.6421 11.0388 34.7154C11.1988 34.7821 11.3688 34.8154 11.5488 34.8154C11.6954 34.8154 11.8388 34.7954 11.9788 34.7554C12.1254 34.7154 12.2654 34.6521 12.3988 34.5654C12.5321 34.4787 12.6488 34.3654 12.7488 34.2254V35.9854C12.5888 36.0721 12.4054 36.1454 12.1988 36.2054C11.9988 36.2654 11.7154 36.2954 11.3488 36.2954C10.8021 36.2954 10.3154 36.1987 9.88875 36.0054C9.46208 35.8121 9.12542 35.5354 8.87875 35.1754C8.63875 34.8154 8.51875 34.3887 8.51875 33.8954C8.51875 33.3954 8.63875 32.9687 8.87875 32.6154C9.12542 32.2554 9.46208 31.9787 9.88875 31.7854C10.3154 31.5921 10.8021 31.4954 11.3488 31.4954C11.7154 31.4954 11.9988 31.5254 12.1988 31.5854C12.4054 31.6454 12.5888 31.7121 12.7488 31.7854V33.5554C12.6488 33.4087 12.5254 33.2954 12.3788 33.2154C12.2321 33.1287 12.0854 33.0687 11.9388 33.0354C11.7921 32.9954 11.6621 32.9754 11.5488 32.9754C11.3688 32.9754 11.1988 33.0187 11.0388 33.1054C10.8854 33.1854 10.7621 33.2954 10.6688 33.4354C10.5754 33.5687 10.5288 33.7221 10.5288 33.8954ZM13.748 28.3954H15.698V36.1954H13.748V28.3954ZM16.4973 33.8954C16.4973 33.3954 16.6173 32.9654 16.8573 32.6054C17.0973 32.2454 17.4273 31.9687 17.8473 31.7754C18.2673 31.5821 18.7439 31.4854 19.2773 31.4854C19.8106 31.4854 20.2873 31.5821 20.7073 31.7754C21.1273 31.9687 21.4573 32.2454 21.6973 32.6054C21.9373 32.9654 22.0573 33.3954 22.0573 33.8954C22.0573 34.3887 21.9373 34.8154 21.6973 35.1754C21.4573 35.5354 21.1273 35.8121 20.7073 36.0054C20.2873 36.1987 19.8106 36.2954 19.2773 36.2954C18.7439 36.2954 18.2673 36.1987 17.8473 36.0054C17.4273 35.8121 17.0973 35.5354 16.8573 35.1754C16.6173 34.8154 16.4973 34.3887 16.4973 33.8954ZM18.5073 33.8954C18.5073 34.0821 18.5439 34.2387 18.6173 34.3654C18.6906 34.4921 18.7839 34.5887 18.8973 34.6554C19.0173 34.7154 19.1439 34.7454 19.2773 34.7454C19.4106 34.7454 19.5339 34.7154 19.6473 34.6554C19.7673 34.5887 19.8639 34.4921 19.9373 34.3654C20.0106 34.2387 20.0473 34.0821 20.0473 33.8954C20.0473 33.7087 20.0106 33.5521 19.9373 33.4254C19.8639 33.2987 19.7673 33.2021 19.6473 33.1354C19.5339 33.0687 19.4106 33.0354 19.2773 33.0354C19.1439 33.0354 19.0173 33.0687 18.8973 33.1354C18.7839 33.2021 18.6906 33.2987 18.6173 33.4254C18.5439 33.5521 18.5073 33.7087 18.5073 33.8954ZM23.1394 34.3654C23.4594 34.5921 23.7327 34.7587 23.9594 34.8654C24.1927 34.9654 24.3794 35.0287 24.5194 35.0554C24.666 35.0821 24.766 35.0954 24.8194 35.0954C24.926 35.0954 24.9994 35.0754 25.0394 35.0354C25.086 34.9887 25.1094 34.9321 25.1094 34.8654C25.1094 34.8054 25.0894 34.7521 25.0494 34.7054C25.016 34.6587 24.9327 34.6087 24.7994 34.5554C24.666 34.4954 24.456 34.4221 24.1694 34.3354C23.9427 34.2621 23.7294 34.1721 23.5294 34.0654C23.336 33.9521 23.1794 33.7987 23.0594 33.6054C22.9394 33.4121 22.8794 33.1621 22.8794 32.8554C22.8794 32.5687 22.956 32.3254 23.1094 32.1254C23.2627 31.9187 23.476 31.7621 23.7494 31.6554C24.0294 31.5487 24.3594 31.4954 24.7394 31.4954C25.0194 31.4954 25.2794 31.5221 25.5194 31.5754C25.7594 31.6221 25.9927 31.6854 26.2194 31.7654C26.446 31.8454 26.6727 31.9387 26.8994 32.0454L26.4194 33.3754C26.1927 33.1821 25.936 33.0287 25.6494 32.9154C25.3694 32.7954 25.136 32.7354 24.9494 32.7354C24.8294 32.7354 24.7494 32.7554 24.7094 32.7954C24.6694 32.8354 24.6494 32.8787 24.6494 32.9254C24.6494 33.0121 24.686 33.0821 24.7594 33.1354C24.8394 33.1821 24.9594 33.2287 25.1194 33.2754C25.286 33.3221 25.5027 33.3954 25.7694 33.4954C25.9894 33.5754 26.196 33.6687 26.3894 33.7754C26.5827 33.8821 26.7394 34.0221 26.8594 34.1954C26.9794 34.3687 27.0394 34.6021 27.0394 34.8954C27.0394 35.4421 26.8827 35.8387 26.5694 36.0854C26.256 36.3254 25.8027 36.4454 25.2094 36.4454C24.8627 36.4454 24.536 36.4154 24.2294 36.3554C23.9227 36.3021 23.6294 36.2221 23.3494 36.1154C23.0694 36.0087 22.7894 35.8821 22.5094 35.7354L23.1394 34.3654ZM30.4222 36.2954C29.8222 36.2954 29.3055 36.1987 28.8722 36.0054C28.4455 35.8121 28.1155 35.5387 27.8822 35.1854C27.6555 34.8254 27.5422 34.3954 27.5422 33.8954C27.5422 33.3887 27.6522 32.9587 27.8722 32.6054C28.0922 32.2454 28.4089 31.9721 28.8222 31.7854C29.2355 31.5921 29.7355 31.4954 30.3222 31.4954C30.9022 31.4954 31.3889 31.5854 31.7822 31.7654C32.1822 31.9387 32.4822 32.1987 32.6822 32.5454C32.8889 32.8854 32.9922 33.3054 32.9922 33.8054C32.9922 33.8921 32.9922 33.9787 32.9922 34.0654C32.9922 34.1454 32.9855 34.2221 32.9722 34.2954H28.6022V33.3554H31.1622L30.7822 33.8154C30.8222 33.7554 30.8555 33.6921 30.8822 33.6254C30.9089 33.5587 30.9222 33.5021 30.9222 33.4554C30.9222 33.2954 30.8955 33.1587 30.8422 33.0454C30.7889 32.9321 30.7122 32.8454 30.6122 32.7854C30.5189 32.7254 30.4055 32.6954 30.2722 32.6954C30.0922 32.6954 29.9455 32.7387 29.8322 32.8254C29.7189 32.9054 29.6355 33.0354 29.5822 33.2154C29.5289 33.3887 29.5022 33.6154 29.5022 33.8954C29.4955 34.1287 29.5222 34.3287 29.5822 34.4954C29.6489 34.6554 29.7422 34.7787 29.8622 34.8654C29.9889 34.9521 30.1422 34.9954 30.3222 34.9954C30.5622 34.9954 30.7622 34.9587 30.9222 34.8854C31.0822 34.8054 31.2022 34.6921 31.2822 34.5454L33.0622 34.8254C32.8155 35.3187 32.4722 35.6887 32.0322 35.9354C31.5989 36.1754 31.0622 36.2954 30.4222 36.2954ZM37.3359 28.3954H39.2859V36.1954H37.3359V28.3954ZM33.6359 33.8954C33.6359 33.3621 33.7393 32.9187 33.9459 32.5654C34.1593 32.2121 34.4293 31.9454 34.7559 31.7654C35.0826 31.5854 35.4193 31.4954 35.7659 31.4954C36.1526 31.4954 36.4959 31.5921 36.7959 31.7854C37.1026 31.9787 37.3459 32.2554 37.5259 32.6154C37.7059 32.9687 37.7959 33.3954 37.7959 33.8954C37.7959 34.3887 37.7059 34.8154 37.5259 35.1754C37.3459 35.5354 37.1026 35.8121 36.7959 36.0054C36.4959 36.1987 36.1526 36.2954 35.7659 36.2954C35.4193 36.2954 35.0826 36.2054 34.7559 36.0254C34.4293 35.8454 34.1593 35.5787 33.9459 35.2254C33.7393 34.8654 33.6359 34.4221 33.6359 33.8954ZM35.6959 33.8954C35.6959 34.0621 35.7326 34.2154 35.8059 34.3554C35.8793 34.4887 35.9793 34.5954 36.1059 34.6754C36.2326 34.7554 36.3693 34.7954 36.5159 34.7954C36.6493 34.7954 36.7793 34.7587 36.9059 34.6854C37.0326 34.6121 37.1359 34.5087 37.2159 34.3754C37.2959 34.2421 37.3359 34.0821 37.3359 33.8954C37.3359 33.7087 37.2959 33.5487 37.2159 33.4154C37.1359 33.2821 37.0326 33.1787 36.9059 33.1054C36.7793 33.0321 36.6493 32.9954 36.5159 32.9954C36.3693 32.9954 36.2326 33.0354 36.1059 33.1154C35.9793 33.1954 35.8793 33.3021 35.8059 33.4354C35.7326 33.5687 35.6959 33.7221 35.6959 33.8954Z" fill="#55000C"/>
<path d="M9 25.0157L38.2335 12.0001" stroke="#55000C" stroke-linecap="round"/>
<path d="M9 12.0001L38.2335 25.0157" stroke="#55000C" stroke-linecap="round"/>
</svg>
