<svg width="48" height="48" viewBox="0 0 48 48" fill="none" xmlns="http://www.w3.org/2000/svg">
<circle cx="24" cy="24" r="23.5" stroke="#55000C"/>
<path d="M18.1248 32V35H16.1748V32.2C16.1748 31.9933 16.1448 31.8333 16.0848 31.72C16.0248 31.6 15.9181 31.54 15.7648 31.54C15.6848 31.54 15.6115 31.5633 15.5448 31.61C15.4781 31.6567 15.4248 31.73 15.3848 31.83C15.3448 31.9233 15.3248 32.0467 15.3248 32.2V35H13.3748V32.2C13.3748 31.9933 13.3448 31.8333 13.2848 31.72C13.2248 31.6 13.1181 31.54 12.9648 31.54C12.8848 31.54 12.8115 31.5633 12.7448 31.61C12.6781 31.6567 12.6248 31.73 12.5848 31.83C12.5448 31.9233 12.5248 32.0467 12.5248 32.2V35H10.6748V30.4H12.5248V31.09C12.6515 30.85 12.8281 30.6567 13.0548 30.51C13.2815 30.3633 13.5615 30.29 13.8948 30.29C14.2748 30.29 14.5648 30.35 14.7648 30.47C14.9715 30.5833 15.1181 30.7567 15.2048 30.99C15.3781 30.7767 15.5915 30.6067 15.8448 30.48C16.0981 30.3533 16.3815 30.29 16.6948 30.29C17.0815 30.29 17.3748 30.3567 17.5748 30.49C17.7815 30.6233 17.9248 30.8167 18.0048 31.07C18.0848 31.3233 18.1248 31.6333 18.1248 32ZM21.8021 35.1C21.2021 35.1 20.6854 35.0033 20.2521 34.81C19.8254 34.6167 19.4954 34.3433 19.2621 33.99C19.0354 33.63 18.9221 33.2 18.9221 32.7C18.9221 32.1933 19.0321 31.7633 19.2521 31.41C19.4721 31.05 19.7887 30.7767 20.2021 30.59C20.6154 30.3967 21.1154 30.3 21.7021 30.3C22.2821 30.3 22.7687 30.39 23.1621 30.57C23.5621 30.7433 23.8621 31.0033 24.0621 31.35C24.2687 31.69 24.3721 32.11 24.3721 32.61C24.3721 32.6967 24.3721 32.7833 24.3721 32.87C24.3721 32.95 24.3654 33.0267 24.3521 33.1H19.9821V32.16H22.5421L22.1621 32.62C22.2021 32.56 22.2354 32.4967 22.2621 32.43C22.2887 32.3633 22.3021 32.3067 22.3021 32.26C22.3021 32.1 22.2754 31.9633 22.2221 31.85C22.1687 31.7367 22.0921 31.65 21.9921 31.59C21.8987 31.53 21.7854 31.5 21.6521 31.5C21.4721 31.5 21.3254 31.5433 21.2121 31.63C21.0987 31.71 21.0154 31.84 20.9621 32.02C20.9087 32.1933 20.8821 32.42 20.8821 32.7C20.8754 32.9333 20.9021 33.1333 20.9621 33.3C21.0287 33.46 21.1221 33.5833 21.2421 33.67C21.3687 33.7567 21.5221 33.8 21.7021 33.8C21.9421 33.8 22.1421 33.7633 22.3021 33.69C22.4621 33.61 22.5821 33.4967 22.6621 33.35L24.4421 33.63C24.1954 34.1233 23.8521 34.4933 23.4121 34.74C22.9787 34.98 22.4421 35.1 21.8021 35.1ZM28.2158 32.2C28.2158 31.9933 28.1858 31.8333 28.1258 31.72C28.0658 31.6 27.9358 31.54 27.7358 31.54C27.6225 31.54 27.5225 31.5633 27.4358 31.61C27.3492 31.6567 27.2825 31.73 27.2358 31.83C27.1892 31.9233 27.1658 32.0467 27.1658 32.2V35H25.2158V30.4H27.1658V31.07C27.2925 30.8367 27.4692 30.65 27.6958 30.51C27.9292 30.3633 28.2258 30.29 28.5858 30.29C29.2125 30.29 29.6492 30.44 29.8958 30.74C30.1425 31.0333 30.2658 31.4533 30.2658 32V35H28.2158V32.2ZM33.3205 33.2C33.3205 33.4067 33.3505 33.57 33.4105 33.69C33.4705 33.8033 33.6005 33.86 33.8005 33.86C33.9205 33.86 34.0205 33.8367 34.1005 33.79C34.1872 33.7433 34.2538 33.6733 34.3005 33.58C34.3472 33.48 34.3705 33.3533 34.3705 33.2V30.4H36.3205V35H34.3705V34.33C34.2438 34.5633 34.0638 34.7533 33.8305 34.9C33.6038 35.04 33.3105 35.11 32.9505 35.11C32.3238 35.11 31.8872 34.9633 31.6405 34.67C31.3938 34.37 31.2705 33.9467 31.2705 33.4V30.4H33.3205V33.2Z" fill="#55000C"/>
<path d="M11 14H36" stroke="#55000C" stroke-linecap="round"/>
<path d="M11 20H36" stroke="#55000C" stroke-linecap="round"/>
<path d="M11 26H36" stroke="#55000C" stroke-linecap="round"/>
</svg>
